<svg
  width="850"
  height="242"
  viewBox="0 0 850 242"
  fill="none"
  xmlns="http://www.w3.org/2000/svg"
>
  <path
    d="M3.13499 69.321C4.86595 69.321 6.27 67.9177 6.27 66.186C6.27 64.455 4.86595 63.051 3.13499 63.051C1.40327 63.051 0 64.455 0 66.186C0 67.9177 1.40327 69.321 3.13499 69.321Z"
    fill="#FCF7FF"
  />
  <path
    d="M42.8358 69.0228C44.5675 69.0228 45.9708 67.6195 45.9708 65.8878C45.9708 64.1561 44.5675 62.7528 42.8358 62.7528C41.1049 62.7528 39.7008 64.1561 39.7008 65.8878C39.7008 67.6195 41.1049 69.0228 42.8358 69.0228Z"
    fill="#FCF7FF"
  />
  <path
    d="M22.9856 80.7195C24.7173 80.7195 26.1206 79.3154 26.1206 77.5844C26.1206 75.8527 24.7173 74.4495 22.9856 74.4495C21.2546 74.4495 19.8506 75.8527 19.8506 77.5844C19.8506 79.3154 21.2546 80.7195 22.9856 80.7195Z"
    fill="#FCF7FF"
  />
  <path
    d="M3.13499 92.4588C4.86595 92.4588 6.27 91.0548 6.27 89.3238C6.27 87.5921 4.86595 86.1888 3.13499 86.1888C1.40327 86.1888 0 87.5921 0 89.3238C0 91.0548 1.40327 92.4588 3.13499 92.4588Z"
    fill="#FCF7FF"
  />
  <path
    d="M3.13499 115.595C4.86595 115.595 6.27 114.192 6.27 112.46C6.27 110.729 4.86595 109.325 3.13499 109.325C1.40327 109.325 0 110.729 0 112.46C0 114.192 1.40327 115.595 3.13499 115.595Z"
    fill="#FCF7FF"
  />
  <path
    d="M3.13499 138.732C4.86595 138.732 6.27 137.329 6.27 135.597C6.27 133.866 4.86595 132.462 3.13499 132.462C1.40327 132.462 0 133.866 0 135.597C0 137.329 1.40327 138.732 3.13499 138.732Z"
    fill="#FCF7FF"
  />
  <path
    d="M3.13499 161.87C4.86595 161.87 6.27 160.467 6.27 158.735C6.27 157.003 4.86595 155.6 3.13499 155.6C1.40327 155.6 0 157.003 0 158.735C0 160.467 1.40327 161.87 3.13499 161.87Z"
    fill="#FCF7FF"
  />
  <path
    d="M22.9856 173.268C24.7173 173.268 26.1206 171.865 26.1206 170.133C26.1206 168.402 24.7173 166.998 22.9856 166.998C21.2546 166.998 19.8506 168.402 19.8506 170.133C19.8506 171.865 21.2546 173.268 22.9856 173.268Z"
    fill="#FCF7FF"
  />
  <path
    d="M3.13499 185.007C4.86595 185.007 6.27 183.604 6.27 181.872C6.27 180.141 4.86595 178.737 3.13499 178.737C1.40327 178.737 0 180.141 0 181.872C0 183.604 1.40327 185.007 3.13499 185.007Z"
    fill="#FCF7FF"
  />
  <path
    d="M102.386 149.447C104.117 149.447 105.521 148.044 105.521 146.312C105.521 144.581 104.117 143.177 102.386 143.177C100.654 143.177 99.2506 144.581 99.2506 146.312C99.2506 148.044 100.654 149.447 102.386 149.447Z"
    fill="#FCF7FF"
  />
  <path
    d="M82.5361 161.186C84.2678 161.186 85.6711 159.783 85.6711 158.051C85.6711 156.32 84.2678 154.916 82.5361 154.916C80.8051 154.916 79.4011 156.32 79.4011 158.051C79.4011 159.783 80.8051 161.186 82.5361 161.186Z"
    fill="#FCF7FF"
  />
  <path
    d="M62.686 172.926C64.4178 172.926 65.821 171.522 65.821 169.791C65.821 168.06 64.4178 166.656 62.686 166.656C60.9543 166.656 59.551 168.06 59.551 169.791C59.551 171.522 60.9543 172.926 62.686 172.926Z"
    fill="#FCF7FF"
  />
  <path
    d="M42.8358 184.665C44.5675 184.665 45.9708 183.262 45.9708 181.53C45.9708 179.799 44.5675 178.395 42.8358 178.395C41.1049 178.395 39.7008 179.799 39.7008 181.53C39.7008 183.262 41.1049 184.665 42.8358 184.665Z"
    fill="#FCF7FF"
  />
  <path
    d="M22.9856 196.404C24.7173 196.404 26.1206 195.001 26.1206 193.269C26.1206 191.538 24.7173 190.134 22.9856 190.134C21.2546 190.134 19.8506 191.538 19.8506 193.269C19.8506 195.001 21.2546 196.404 22.9856 196.404Z"
    fill="#FCF7FF"
  />
  <path
    d="M102.386 172.585C104.117 172.585 105.521 171.182 105.521 169.45C105.521 167.718 104.117 166.315 102.386 166.315C100.654 166.315 99.2506 167.718 99.2506 169.45C99.2506 171.182 100.654 172.585 102.386 172.585Z"
    fill="#FCF7FF"
  />
  <path
    d="M82.5361 184.325C84.2678 184.325 85.6711 182.921 85.6711 181.19C85.6711 179.458 84.2678 178.055 82.5361 178.055C80.8051 178.055 79.4011 179.458 79.4011 181.19C79.4011 182.921 80.8051 184.325 82.5361 184.325Z"
    fill="#FCF7FF"
  />
  <path
    d="M62.686 196.064C64.4178 196.064 65.821 194.661 65.821 192.929C65.821 191.197 64.4178 189.794 62.686 189.794C60.9543 189.794 59.551 191.197 59.551 192.929C59.551 194.661 60.9543 196.064 62.686 196.064Z"
    fill="#FCF7FF"
  />
  <path
    d="M42.8358 207.803C44.5675 207.803 45.9708 206.4 45.9708 204.668C45.9708 202.937 44.5675 201.533 42.8358 201.533C41.1049 201.533 39.7008 202.937 39.7008 204.668C39.7008 206.4 41.1049 207.803 42.8358 207.803Z"
    fill="#FCF7FF"
  />
  <path
    d="M102.386 195.722C104.117 195.722 105.521 194.319 105.521 192.587C105.521 190.856 104.117 189.452 102.386 189.452C100.654 189.452 99.2506 190.856 99.2506 192.587C99.2506 194.319 100.654 195.722 102.386 195.722Z"
    fill="#FCF7FF"
  />
  <path
    d="M82.5361 207.461C84.2678 207.461 85.6711 206.058 85.6711 204.326C85.6711 202.595 84.2678 201.191 82.5361 201.191C80.8051 201.191 79.4011 202.595 79.4011 204.326C79.4011 206.058 80.8051 207.461 82.5361 207.461Z"
    fill="#FCF7FF"
  />
  <path
    d="M62.686 219.201C64.4178 219.201 65.821 217.797 65.821 216.066C65.821 214.335 64.4178 212.931 62.686 212.931C60.9543 212.931 59.551 214.335 59.551 216.066C59.551 217.797 60.9543 219.201 62.686 219.201Z"
    fill="#FCF7FF"
  />
  <path
    d="M102.386 218.858C104.117 218.858 105.521 217.455 105.521 215.723C105.521 213.992 104.117 212.588 102.386 212.588C100.654 212.588 99.2506 213.992 99.2506 215.723C99.2506 217.455 100.654 218.858 102.386 218.858Z"
    fill="#FCF7FF"
  />
  <path
    d="M82.5361 230.598C84.2678 230.598 85.6711 229.194 85.6711 227.463C85.6711 225.732 84.2678 224.328 82.5361 224.328C80.8051 224.328 79.4011 225.732 79.4011 227.463C79.4011 229.194 80.8051 230.598 82.5361 230.598Z"
    fill="#FCF7FF"
  />
  <path
    d="M102.386 241.997C104.117 241.997 105.521 240.593 105.521 238.862C105.521 237.131 104.117 235.727 102.386 235.727C100.654 235.727 99.2506 237.131 99.2506 238.862C99.2506 240.593 100.654 241.997 102.386 241.997Z"
    fill="#FCF7FF"
  />
  <path
    d="M201.38 69.3203C203.111 69.3203 204.515 67.9172 204.515 66.1857C204.515 64.4549 203.111 63.051 201.38 63.051C199.649 63.051 198.245 64.4549 198.245 66.1857C198.245 67.9172 199.649 69.3203 201.38 69.3203Z"
    fill="#FCF7FF"
  />
  <path
    d="M161.638 69.0228C163.37 69.0228 164.773 67.6195 164.773 65.8878C164.773 64.1561 163.37 62.7528 161.638 62.7528C159.907 62.7528 158.503 64.1561 158.503 65.8878C158.503 67.6195 159.907 69.0228 161.638 69.0228Z"
    fill="#FCF7FF"
  />
  <path
    d="M181.531 80.7195C183.262 80.7195 184.665 79.3154 184.665 77.5845C184.665 75.8527 183.262 74.4495 181.531 74.4495C179.799 74.4495 178.395 75.8527 178.395 77.5845C178.395 79.3154 179.799 80.7195 181.531 80.7195Z"
    fill="#FCF7FF"
  />
  <path
    d="M201.38 92.4581C203.111 92.4581 204.515 91.0542 204.515 89.3235C204.515 87.592 203.111 86.1888 201.38 86.1888C199.649 86.1888 198.245 87.592 198.245 89.3235C198.245 91.0542 199.649 92.4581 201.38 92.4581Z"
    fill="#FCF7FF"
  />
  <path
    d="M201.38 115.595C203.111 115.595 204.515 114.192 204.515 112.46C204.515 110.729 203.111 109.325 201.38 109.325C199.649 109.325 198.245 110.729 198.245 112.46C198.245 114.192 199.649 115.595 201.38 115.595Z"
    fill="#FCF7FF"
  />
  <path
    d="M201.38 138.732C203.111 138.732 204.515 137.328 204.515 135.597C204.515 133.866 203.111 132.462 201.38 132.462C199.649 132.462 198.245 133.866 198.245 135.597C198.245 137.328 199.649 138.732 201.38 138.732Z"
    fill="#FCF7FF"
  />
  <path
    d="M201.38 161.869C203.111 161.869 204.515 160.466 204.515 158.735C204.515 157.003 203.111 155.6 201.38 155.6C199.649 155.6 198.245 157.003 198.245 158.735C198.245 160.466 199.649 161.869 201.38 161.869Z"
    fill="#FCF7FF"
  />
  <path
    d="M181.531 173.268C183.262 173.268 184.665 171.865 184.665 170.133C184.665 168.402 183.262 166.998 181.531 166.998C179.799 166.998 178.395 168.402 178.395 170.133C178.395 171.865 179.799 173.268 181.531 173.268Z"
    fill="#FCF7FF"
  />
  <path
    d="M201.38 185.007C203.111 185.007 204.515 183.603 204.515 181.872C204.515 180.141 203.111 178.737 201.38 178.737C199.649 178.737 198.245 180.141 198.245 181.872C198.245 183.603 199.649 185.007 201.38 185.007Z"
    fill="#FCF7FF"
  />
  <path
    d="M102.087 149.447C103.818 149.447 105.222 148.044 105.222 146.312C105.222 144.581 103.818 143.177 102.087 143.177C100.355 143.177 98.9521 144.581 98.9521 146.312C98.9521 148.044 100.355 149.447 102.087 149.447Z"
    fill="#FCF7FF"
  />
  <path
    d="M121.937 161.186C123.669 161.186 125.072 159.783 125.072 158.051C125.072 156.32 123.669 154.916 121.937 154.916C120.206 154.916 118.802 156.32 118.802 158.051C118.802 159.783 120.206 161.186 121.937 161.186Z"
    fill="#FCF7FF"
  />
  <path
    d="M141.786 172.926C143.518 172.926 144.921 171.522 144.921 169.791C144.921 168.06 143.518 166.656 141.786 166.656C140.055 166.656 138.651 168.06 138.651 169.791C138.651 171.522 140.055 172.926 141.786 172.926Z"
    fill="#FCF7FF"
  />
  <path
    d="M161.638 184.665C163.37 184.665 164.773 183.262 164.773 181.53C164.773 179.799 163.37 178.395 161.638 178.395C159.907 178.395 158.503 179.799 158.503 181.53C158.503 183.262 159.907 184.665 161.638 184.665Z"
    fill="#FCF7FF"
  />
  <path
    d="M181.531 196.404C183.262 196.404 184.665 195.001 184.665 193.269C184.665 191.538 183.262 190.134 181.531 190.134C179.799 190.134 178.395 191.538 178.395 193.269C178.395 195.001 179.799 196.404 181.531 196.404Z"
    fill="#FCF7FF"
  />
  <path
    d="M102.087 172.585C103.818 172.585 105.222 171.182 105.222 169.45C105.222 167.718 103.818 166.315 102.087 166.315C100.355 166.315 98.9521 167.718 98.9521 169.45C98.9521 171.182 100.355 172.585 102.087 172.585Z"
    fill="#FCF7FF"
  />
  <path
    d="M121.937 184.325C123.669 184.325 125.072 182.921 125.072 181.19C125.072 179.458 123.669 178.055 121.937 178.055C120.206 178.055 118.802 179.458 118.802 181.19C118.802 182.921 120.206 184.325 121.937 184.325Z"
    fill="#FCF7FF"
  />
  <path
    d="M141.786 196.064C143.518 196.064 144.921 194.661 144.921 192.929C144.921 191.197 143.518 189.794 141.786 189.794C140.055 189.794 138.651 191.197 138.651 192.929C138.651 194.661 140.055 196.064 141.786 196.064Z"
    fill="#FCF7FF"
  />
  <path
    d="M161.638 207.803C163.37 207.803 164.773 206.4 164.773 204.668C164.773 202.937 163.37 201.533 161.638 201.533C159.907 201.533 158.503 202.937 158.503 204.668C158.503 206.4 159.907 207.803 161.638 207.803Z"
    fill="#FCF7FF"
  />
  <path
    d="M102.087 195.722C103.818 195.722 105.222 194.319 105.222 192.587C105.222 190.856 103.818 189.452 102.087 189.452C100.355 189.452 98.9521 190.856 98.9521 192.587C98.9521 194.319 100.355 195.722 102.087 195.722Z"
    fill="#FCF7FF"
  />
  <path
    d="M121.937 207.461C123.669 207.461 125.072 206.058 125.072 204.326C125.072 202.595 123.669 201.191 121.937 201.191C120.206 201.191 118.802 202.595 118.802 204.326C118.802 206.058 120.206 207.461 121.937 207.461Z"
    fill="#FCF7FF"
  />
  <path
    d="M141.786 219.201C143.518 219.201 144.921 217.797 144.921 216.066C144.921 214.335 143.518 212.931 141.786 212.931C140.055 212.931 138.651 214.335 138.651 216.066C138.651 217.797 140.055 219.201 141.786 219.201Z"
    fill="#FCF7FF"
  />
  <path
    d="M102.087 218.858C103.818 218.858 105.222 217.455 105.222 215.723C105.222 213.992 103.818 212.588 102.087 212.588C100.355 212.588 98.9521 213.992 98.9521 215.723C98.9521 217.455 100.355 218.858 102.087 218.858Z"
    fill="#FCF7FF"
  />
  <path
    d="M121.937 230.598C123.669 230.598 125.072 229.194 125.072 227.463C125.072 225.732 123.669 224.328 121.937 224.328C120.206 224.328 118.802 225.732 118.802 227.463C118.802 229.194 120.206 230.598 121.937 230.598Z"
    fill="#FCF7FF"
  />
  <path
    d="M102.087 241.997C103.818 241.997 105.222 240.593 105.222 238.862C105.222 237.131 103.818 235.727 102.087 235.727C100.355 235.727 98.9521 237.131 98.9521 238.862C98.9521 240.593 100.355 241.997 102.087 241.997Z"
    fill="#FCF7FF"
  />
  <path
    d="M100.039 6.27C101.77 6.27 103.174 4.8667 103.174 3.13499C103.174 1.40402 101.77 0 100.039 0C98.3072 0 96.9039 1.40402 96.9039 3.13499C96.9039 4.8667 98.3072 6.27 100.039 6.27Z"
    fill="#FCF7FF"
  />
  <path
    d="M80.1887 18.0092C81.9197 18.0092 83.323 16.6059 83.323 14.8742C83.323 13.1432 81.9197 11.7392 80.1887 11.7392C78.457 11.7392 77.053 13.1432 77.053 14.8742C77.053 16.6059 78.457 18.0092 80.1887 18.0092Z"
    fill="#FCF7FF"
  />
  <path
    d="M60.337 29.7488C62.0688 29.7488 63.472 28.3455 63.472 26.6137C63.472 24.8828 62.0688 23.4788 60.337 23.4788C58.6061 23.4788 57.202 24.8828 57.202 26.6137C57.202 28.3455 58.6061 29.7488 60.337 29.7488Z"
    fill="#FCF7FF"
  />
  <path
    d="M40.4873 41.4881C42.2182 41.4881 43.6223 40.0848 43.6223 38.3531C43.6223 36.6222 42.2182 35.2181 40.4873 35.2181C38.7556 35.2181 37.3523 36.6222 37.3523 38.3531C37.3523 40.0848 38.7556 41.4881 40.4873 41.4881Z"
    fill="#FCF7FF"
  />
  <path
    d="M20.6382 53.2276C22.3691 53.2276 23.7732 51.8243 23.7732 50.0926C23.7732 48.3616 22.3691 46.9576 20.6382 46.9576C18.9064 46.9576 17.5032 48.3616 17.5032 50.0926C17.5032 51.8243 18.9064 53.2276 20.6382 53.2276Z"
    fill="#FCF7FF"
  />
  <path
    d="M100.039 29.4082C101.77 29.4082 103.174 28.0041 103.174 26.2732C103.174 24.5415 101.77 23.1382 100.039 23.1382C98.3072 23.1382 96.9039 24.5415 96.9039 26.2732C96.9039 28.0041 98.3072 29.4082 100.039 29.4082Z"
    fill="#FCF7FF"
  />
  <path
    d="M80.1887 41.1471C81.9197 41.1471 83.323 39.7431 83.323 38.0121C83.323 36.2804 81.9197 34.8771 80.1887 34.8771C78.457 34.8771 77.053 36.2804 77.053 38.0121C77.053 39.7431 78.457 41.1471 80.1887 41.1471Z"
    fill="#FCF7FF"
  />
  <path
    d="M60.337 52.8864C62.0688 52.8864 63.472 51.4823 63.472 49.7514C63.472 48.0197 62.0688 46.6164 60.337 46.6164C58.6061 46.6164 57.202 48.0197 57.202 49.7514C57.202 51.4823 58.6061 52.8864 60.337 52.8864Z"
    fill="#FCF7FF"
  />
  <path
    d="M99.7392 6.27C101.471 6.27 102.874 4.8667 102.874 3.13499C102.874 1.40402 101.471 0 99.7392 0C98.0083 0 96.6042 1.40402 96.6042 3.13499C96.6042 4.8667 98.0083 6.27 99.7392 6.27Z"
    fill="#FCF7FF"
  />
  <path
    d="M119.589 18.0092C121.321 18.0092 122.724 16.6059 122.724 14.8742C122.724 13.1432 121.321 11.7392 119.589 11.7392C117.858 11.7392 116.454 13.1432 116.454 14.8742C116.454 16.6059 117.858 18.0092 119.589 18.0092Z"
    fill="#FCF7FF"
  />
  <path
    d="M139.441 29.7487C141.171 29.7487 142.576 28.3454 142.576 26.6137C142.576 24.8828 141.171 23.4788 139.441 23.4788C137.709 23.4788 136.306 24.8828 136.306 26.6137C136.306 28.3454 137.709 29.7487 139.441 29.7487Z"
    fill="#FCF7FF"
  />
  <path
    d="M159.289 41.4882C161.021 41.4882 162.424 40.0849 162.424 38.3531C162.424 36.6222 161.021 35.2181 159.289 35.2181C157.558 35.2181 156.154 36.6222 156.154 38.3531C156.154 40.0849 157.558 41.4882 159.289 41.4882Z"
    fill="#FCF7FF"
  />
  <path
    d="M179.182 53.2276C180.914 53.2276 182.317 51.8243 182.317 50.0926C182.317 48.3616 180.914 46.9576 179.182 46.9576C177.45 46.9576 176.047 48.3616 176.047 50.0926C176.047 51.8243 177.45 53.2276 179.182 53.2276Z"
    fill="#FCF7FF"
  />
  <path
    d="M99.7392 29.4082C101.471 29.4082 102.874 28.0041 102.874 26.2732C102.874 24.5415 101.471 23.1382 99.7392 23.1382C98.0083 23.1382 96.6042 24.5415 96.6042 26.2732C96.6042 28.0041 98.0083 29.4082 99.7392 29.4082Z"
    fill="#FCF7FF"
  />
  <path
    d="M119.589 41.1471C121.321 41.1471 122.724 39.7431 122.724 38.0121C122.724 36.2804 121.321 34.8771 119.589 34.8771C117.858 34.8771 116.454 36.2804 116.454 38.0121C116.454 39.7431 117.858 41.1471 119.589 41.1471Z"
    fill="#FCF7FF"
  />
  <path
    d="M139.441 52.8864C141.171 52.8864 142.576 51.4823 142.576 49.7514C142.576 48.0197 141.171 46.6164 139.441 46.6164C137.709 46.6164 136.306 48.0197 136.306 49.7514C136.306 51.4823 137.709 52.8864 139.441 52.8864Z"
    fill="#FCF7FF"
  />
  <path
    d="M82.4567 97.2936C87.2557 97.2936 91.1467 93.4031 91.1467 88.6036C91.1467 83.8041 87.2557 79.9136 82.4567 79.9136C77.6573 79.9136 73.7667 83.8041 73.7667 88.6036C73.7667 93.4031 77.6573 97.2936 82.4567 97.2936Z"
    fill="#FCF7FF"
  />
  <path
    d="M62.6058 109.033C67.4052 109.033 71.2958 105.142 71.2958 100.343C71.2958 95.5434 67.4052 91.6529 62.6058 91.6529C57.8068 91.6529 53.9158 95.5434 53.9158 100.343C53.9158 105.142 57.8068 109.033 62.6058 109.033Z"
    fill="#FCF7FF"
  />
  <path
    d="M42.7557 120.729C47.5547 120.729 51.4457 116.839 51.4457 112.039C51.4457 107.24 47.5547 103.349 42.7557 103.349C37.9562 103.349 34.0657 107.24 34.0657 112.039C34.0657 116.839 37.9562 120.729 42.7557 120.729Z"
    fill="#FCF7FF"
  />
  <path
    d="M82.4567 120.431C87.2557 120.431 91.1467 116.54 91.1467 111.741C91.1467 106.942 87.2557 103.051 82.4567 103.051C77.6573 103.051 73.7667 106.942 73.7667 111.741C73.7667 116.54 77.6573 120.431 82.4567 120.431Z"
    fill="#FCF7FF"
  />
  <path
    d="M62.6058 132.127C67.4052 132.127 71.2958 128.237 71.2958 123.437C71.2958 118.638 67.4052 114.747 62.6058 114.747C57.8068 114.747 53.9158 118.638 53.9158 123.437C53.9158 128.237 57.8068 132.127 62.6058 132.127Z"
    fill="#FCF7FF"
  />
  <path
    d="M42.7557 143.867C47.5547 143.867 51.4457 139.976 51.4457 135.177C51.4457 130.378 47.5547 126.487 42.7557 126.487C37.9562 126.487 34.0657 130.378 34.0657 135.177C34.0657 139.976 37.9562 143.867 42.7557 143.867Z"
    fill="#FCF7FF"
  />
  <path
    d="M102.007 85.5539C106.807 85.5539 110.697 81.6634 110.697 76.8639C110.697 72.0644 106.807 68.1739 102.007 68.1739C97.2079 68.1739 93.3174 72.0644 93.3174 76.8639C93.3174 81.6634 97.2079 85.5539 102.007 85.5539Z"
    fill="#FCF7FF"
  />
  <path
    d="M121.858 97.2936C126.658 97.2936 130.548 93.4031 130.548 88.6036C130.548 83.8041 126.658 79.9136 121.858 79.9136C117.059 79.9136 113.168 83.8041 113.168 88.6036C113.168 93.4031 117.059 97.2936 121.858 97.2936Z"
    fill="#FCF7FF"
  />
  <path
    d="M141.708 109.033C146.508 109.033 150.398 105.142 150.398 100.343C150.398 95.5434 146.508 91.6529 141.708 91.6529C136.909 91.6529 133.018 95.5434 133.018 100.343C133.018 105.142 136.909 109.033 141.708 109.033Z"
    fill="#FCF7FF"
  />
  <path
    d="M161.557 120.73C166.357 120.73 170.247 116.839 170.247 112.04C170.247 107.24 166.357 103.349 161.557 103.349C156.758 103.349 152.867 107.24 152.867 112.04C152.867 116.839 156.758 120.73 161.557 120.73Z"
    fill="#FCF7FF"
  />
  <path
    d="M102.007 108.691C106.807 108.691 110.697 104.801 110.697 100.001C110.697 95.2022 106.807 91.3112 102.007 91.3112C97.2079 91.3112 93.3174 95.2022 93.3174 100.001C93.3174 104.801 97.2079 108.691 102.007 108.691Z"
    fill="#FCF7FF"
  />
  <path
    d="M121.858 120.431C126.658 120.431 130.548 116.54 130.548 111.741C130.548 106.942 126.658 103.051 121.858 103.051C117.059 103.051 113.168 106.942 113.168 111.741C113.168 116.54 117.059 120.431 121.858 120.431Z"
    fill="#FCF7FF"
  />
  <path
    d="M141.708 132.127C146.508 132.127 150.398 128.237 150.398 123.437C150.398 118.638 146.508 114.747 141.708 114.747C136.909 114.747 133.018 118.638 133.018 123.437C133.018 128.237 136.909 132.127 141.708 132.127Z"
    fill="#FCF7FF"
  />
  <path
    d="M161.557 143.867C166.357 143.867 170.247 139.976 170.247 135.177C170.247 130.378 166.357 126.487 161.557 126.487C156.758 126.487 152.867 130.378 152.867 135.177C152.867 139.976 156.758 143.867 161.557 143.867Z"
    fill="#FCF7FF"
  />
  <path
    d="M82.5396 70.6106C85.3343 70.6106 87.5996 68.3447 87.5996 65.5506C87.5996 62.756 85.3343 60.4906 82.5396 60.4906C79.7456 60.4906 77.4796 62.756 77.4796 65.5506C77.4796 68.3447 79.7456 70.6106 82.5396 70.6106Z"
    fill="#FCF7FF"
  />
  <path
    d="M62.6893 82.3498C65.4839 82.3498 67.7493 80.0838 67.7493 77.2898C67.7493 74.4952 65.4839 72.2298 62.6893 72.2298C59.8946 72.2298 57.6293 74.4952 57.6293 77.2898C57.6293 80.0838 59.8946 82.3498 62.6893 82.3498Z"
    fill="#FCF7FF"
  />
  <path
    d="M42.8403 94.0892C45.6349 94.0892 47.9003 91.8233 47.9003 89.0292C47.9003 86.2346 45.6349 83.9692 42.8403 83.9692C40.0456 83.9692 37.7803 86.2346 37.7803 89.0292C37.7803 91.8233 40.0456 94.0892 42.8403 94.0892Z"
    fill="#FCF7FF"
  />
  <path
    d="M22.9901 105.786C25.7847 105.786 28.0501 103.52 28.0501 100.726C28.0501 97.9314 25.7847 95.666 22.9901 95.666C20.1954 95.666 17.9301 97.9314 17.9301 100.726C17.9301 103.52 20.1954 105.786 22.9901 105.786Z"
    fill="#FCF7FF"
  />
  <path
    d="M22.9901 152.059C25.7847 152.059 28.0501 149.794 28.0501 146.999C28.0501 144.204 25.7847 141.939 22.9901 141.939C20.1954 141.939 17.9301 144.204 17.9301 146.999C17.9301 149.794 20.1954 152.059 22.9901 152.059Z"
    fill="#FCF7FF"
  />
  <path
    d="M82.5396 139.979C85.3343 139.979 87.5996 137.713 87.5996 134.919C87.5996 132.124 85.3343 129.859 82.5396 129.859C79.7456 129.859 77.4796 132.124 77.4796 134.919C77.4796 137.713 79.7456 139.979 82.5396 139.979Z"
    fill="#FCF7FF"
  />
  <path
    d="M62.6893 151.719C65.4839 151.719 67.7493 149.453 67.7493 146.659C67.7493 143.864 65.4839 141.599 62.6893 141.599C59.8946 141.599 57.6293 143.864 57.6293 146.659C57.6293 149.453 59.8946 151.719 62.6893 151.719Z"
    fill="#FCF7FF"
  />
  <path
    d="M42.8403 163.458C45.6349 163.458 47.9003 161.192 47.9003 158.398C47.9003 155.603 45.6349 153.338 42.8403 153.338C40.0456 153.338 37.7803 155.603 37.7803 158.398C37.7803 161.192 40.0456 163.458 42.8403 163.458Z"
    fill="#FCF7FF"
  />
  <path
    d="M102.09 58.8709C104.885 58.8709 107.15 56.605 107.15 53.8109C107.15 51.0163 104.885 48.7509 102.09 48.7509C99.2958 48.7509 97.0304 51.0163 97.0304 53.8109C97.0304 56.605 99.2958 58.8709 102.09 58.8709Z"
    fill="#FCF7FF"
  />
  <path
    d="M121.942 70.6106C124.736 70.6106 127.001 68.3446 127.001 65.5506C127.001 62.756 124.736 60.4906 121.942 60.4906C119.147 60.4906 116.881 62.756 116.881 65.5506C116.881 68.3446 119.147 70.6106 121.942 70.6106Z"
    fill="#FCF7FF"
  />
  <path
    d="M141.793 82.3498C144.587 82.3498 146.853 80.0838 146.853 77.2898C146.853 74.4952 144.587 72.2298 141.793 72.2298C138.998 72.2298 136.733 74.4952 136.733 77.2898C136.733 80.0838 138.998 82.3498 141.793 82.3498Z"
    fill="#FCF7FF"
  />
  <path
    d="M161.642 94.0892C164.437 94.0892 166.702 91.8233 166.702 89.0292C166.702 86.2346 164.437 83.9692 161.642 83.9692C158.848 83.9692 156.582 86.2346 156.582 89.0292C156.582 91.8233 158.848 94.0892 161.642 94.0892Z"
    fill="#FCF7FF"
  />
  <path
    d="M181.535 105.786C184.329 105.786 186.595 103.52 186.595 100.726C186.595 97.9314 184.329 95.666 181.535 95.666C178.74 95.666 176.475 97.9314 176.475 100.726C176.475 103.52 178.74 105.786 181.535 105.786Z"
    fill="#FCF7FF"
  />
  <path
    d="M181.535 128.922C184.329 128.922 186.595 126.657 186.595 123.863C186.595 121.068 184.329 118.802 181.535 118.802C178.74 118.802 176.475 121.068 176.475 123.863C176.475 126.657 178.74 128.922 181.535 128.922Z"
    fill="#FCF7FF"
  />
  <path
    d="M181.535 152.059C184.329 152.059 186.595 149.794 186.595 146.999C186.595 144.204 184.329 141.939 181.535 141.939C178.74 141.939 176.475 144.204 176.475 146.999C176.475 149.794 178.74 152.059 181.535 152.059Z"
    fill="#FCF7FF"
  />
  <path
    d="M102.09 128.282C104.885 128.282 107.15 126.017 107.15 123.222C107.15 120.428 104.885 118.162 102.09 118.162C99.2958 118.162 97.0304 120.428 97.0304 123.222C97.0304 126.017 99.2958 128.282 102.09 128.282Z"
    fill="#FCF7FF"
  />
  <path
    d="M121.942 139.979C124.736 139.979 127.001 137.713 127.001 134.919C127.001 132.124 124.736 129.859 121.942 129.859C119.147 129.859 116.881 132.124 116.881 134.919C116.881 137.713 119.147 139.979 121.942 139.979Z"
    fill="#FCF7FF"
  />
  <path
    d="M141.793 151.719C144.587 151.719 146.853 149.453 146.853 146.659C146.853 143.864 144.587 141.599 141.793 141.599C138.998 141.599 136.733 143.864 136.733 146.659C136.733 149.453 138.998 151.719 141.793 151.719Z"
    fill="#FCF7FF"
  />
  <path
    d="M161.642 163.458C164.437 163.458 166.702 161.192 166.702 158.398C166.702 155.603 164.437 153.338 161.642 153.338C158.848 153.338 156.582 155.603 156.582 158.398C156.582 161.192 158.848 163.458 161.642 163.458Z"
    fill="#FCF7FF"
  />
  <path
    d="M22.9901 128.922C25.7847 128.922 28.0501 126.657 28.0501 123.863C28.0501 121.068 25.7847 118.802 22.9901 118.802C20.1954 118.802 17.9301 121.068 17.9301 123.863C17.9301 126.657 20.1954 128.922 22.9901 128.922Z"
    fill="#FCF7FF"
  />
  <path
    d="M268.468 190.498V51.5892H368.58V81.9756H306.18V105.851H363.426V136.237H306.18V160.112H368.309V190.498H268.468ZM423.357 51.5892V190.498H385.916V51.5892H423.357ZM490.443 192.397C479.32 192.397 469.733 190.272 461.685 186.022C453.681 181.726 447.509 175.576 443.168 167.573C438.872 159.524 436.724 149.893 436.724 138.679C436.724 127.917 438.895 118.512 443.236 110.463C447.577 102.414 453.704 96.1513 461.617 91.6748C469.53 87.1982 478.867 84.9599 489.629 84.9599C497.497 84.9599 504.619 86.1808 510.995 88.6226C517.37 91.0643 522.819 94.6139 527.341 99.2714C531.863 103.884 535.345 109.491 537.786 116.092C540.228 122.694 541.449 130.133 541.449 138.407V147.089H448.391V126.47H506.993C506.948 123.486 506.179 120.863 504.687 118.602C503.24 116.296 501.273 114.51 498.786 113.244C496.344 111.932 493.563 111.277 490.443 111.277C487.414 111.277 484.633 111.932 482.101 113.244C479.568 114.51 477.534 116.273 475.996 118.534C474.504 120.795 473.713 123.44 473.622 126.47V148.717C473.622 152.063 474.323 155.048 475.725 157.67C477.127 160.293 479.139 162.35 481.761 163.842C484.384 165.335 487.549 166.081 491.257 166.081C493.835 166.081 496.186 165.719 498.311 164.995C500.482 164.272 502.336 163.232 503.873 161.875C505.41 160.474 506.541 158.801 507.264 156.856H541.449C540.273 164.091 537.492 170.376 533.106 175.712C528.72 181.003 522.91 185.117 515.675 188.057C508.485 190.95 500.075 192.397 490.443 192.397ZM650.046 120.23H615.59C615.409 118.105 614.663 116.273 613.351 114.736C612.04 113.198 610.344 112.023 608.264 111.209C606.23 110.35 603.969 109.92 601.482 109.92C598.271 109.92 595.513 110.508 593.207 111.684C590.901 112.859 589.77 114.532 589.815 116.703C589.77 118.24 590.426 119.665 591.782 120.976C593.184 122.287 595.875 123.305 599.854 124.028L621.016 127.826C631.687 129.771 639.623 133.049 644.823 137.661C650.068 142.228 652.713 148.355 652.759 156.042C652.713 163.458 650.498 169.902 646.112 175.373C641.771 180.799 635.825 185.004 628.273 187.989C620.767 190.928 612.198 192.397 602.567 192.397C586.65 192.397 574.193 189.142 565.194 182.63C556.241 176.119 551.245 167.528 550.205 156.856H587.374C587.871 160.157 589.499 162.712 592.257 164.521C595.061 166.284 598.588 167.166 602.838 167.166C606.275 167.166 609.101 166.578 611.317 165.402C613.577 164.227 614.73 162.554 614.776 160.383C614.73 158.394 613.736 156.811 611.791 155.635C609.892 154.46 606.908 153.51 602.838 152.787L584.389 149.531C573.763 147.677 565.805 144.15 560.514 138.95C555.224 133.75 552.601 127.058 552.646 118.873C552.601 111.638 554.5 105.511 558.344 100.492C562.233 95.4279 567.772 91.5843 574.961 88.9617C582.196 86.2939 590.765 84.9599 600.668 84.9599C615.725 84.9599 627.595 88.08 636.277 94.32C645.004 100.56 649.593 109.197 650.046 120.23ZM727.323 86.3165V113.447H658.683V86.3165H727.323ZM671.977 61.3562H709.417V156.992C709.417 158.439 709.666 159.66 710.163 160.655C710.66 161.604 711.429 162.328 712.469 162.825C713.509 163.277 714.843 163.503 716.471 163.503C717.601 163.503 718.913 163.368 720.405 163.096C721.942 162.825 723.073 162.599 723.796 162.418L729.222 188.735C727.549 189.232 725.153 189.843 722.033 190.566C718.958 191.29 715.295 191.764 711.045 191.99C702.453 192.443 695.241 191.561 689.408 189.345C683.575 187.084 679.189 183.535 676.25 178.696C673.311 173.858 671.886 167.799 671.977 160.519V61.3562ZM789.764 192.397C778.459 192.397 768.783 190.159 760.734 185.683C752.685 181.161 746.513 174.876 742.217 166.827C737.922 158.733 735.774 149.35 735.774 138.679C735.774 128.007 737.922 118.647 742.217 110.598C746.513 102.504 752.685 96.2192 760.734 91.7426C768.783 87.2208 778.459 84.9599 789.764 84.9599C801.068 84.9599 810.745 87.2208 818.794 91.7426C826.842 96.2192 833.015 102.504 837.31 110.598C841.606 118.647 843.754 128.007 843.754 138.679C843.754 149.35 841.606 158.733 837.31 166.827C833.015 174.876 826.842 181.161 818.794 185.683C810.745 190.159 801.068 192.397 789.764 192.397ZM790.035 164.724C793.2 164.724 795.936 163.662 798.242 161.536C800.548 159.411 802.334 156.381 803.601 152.448C804.867 148.514 805.5 143.834 805.5 138.407C805.5 132.936 804.867 128.256 803.601 124.367C802.334 120.433 800.548 117.404 798.242 115.278C795.936 113.153 793.2 112.091 790.035 112.091C786.689 112.091 783.818 113.153 781.421 115.278C779.025 117.404 777.193 120.433 775.927 124.367C774.661 128.256 774.028 132.936 774.028 138.407C774.028 143.834 774.661 148.514 775.927 152.448C777.193 156.381 779.025 159.411 781.421 161.536C783.818 163.662 786.689 164.724 790.035 164.724Z"
    fill="#FCF7FF"
  />
</svg>
