<svg
  width="24"
  height="24"
  viewBox="0 0 24 24"
  fill="none"
  xmlns="http://www.w3.org/2000/svg"
>
  <path
    d="M0 12C0 5.37258 5.37258 0 12 0V0C18.6274 0 24 5.37258 24 12V12C24 18.6274 18.6274 24 12 24V24C5.37258 24 0 18.6274 0 12V12Z"
    fill="white"
  />
  <path
    d="M3.26826 7.93169C3.41637 7.93169 3.53651 7.81161 3.53651 7.66343C3.53651 7.51531 3.41637 7.39517 3.26826 7.39517C3.12008 7.39517 3 7.51531 3 7.66343C3 7.81161 3.12008 7.93169 3.26826 7.93169Z"
    fill="#4116F8"
  />
  <path
    d="M6.66535 7.90617C6.81353 7.90617 6.93361 7.7861 6.93361 7.63792C6.93361 7.48974 6.81353 7.36966 6.66535 7.36966C6.51724 7.36966 6.39709 7.48974 6.39709 7.63792C6.39709 7.7861 6.51724 7.90617 6.66535 7.90617Z"
    fill="#4116F8"
  />
  <path
    d="M4.96686 8.90703C5.11504 8.90703 5.23512 8.78689 5.23512 8.63877C5.23512 8.49059 5.11504 8.37051 4.96686 8.37051C4.81875 8.37051 4.69861 8.49059 4.69861 8.63877C4.69861 8.78689 4.81875 8.90703 4.96686 8.90703Z"
    fill="#4116F8"
  />
  <path
    d="M3.26826 9.91154C3.41637 9.91154 3.53651 9.7914 3.53651 9.64329C3.53651 9.49511 3.41637 9.37503 3.26826 9.37503C3.12008 9.37503 3 9.49511 3 9.64329C3 9.7914 3.12008 9.91154 3.26826 9.91154Z"
    fill="#4116F8"
  />
  <path
    d="M3.26826 11.8913C3.41637 11.8913 3.53651 11.7712 3.53651 11.6231C3.53651 11.4749 3.41637 11.3548 3.26826 11.3548C3.12008 11.3548 3 11.4749 3 11.6231C3 11.7712 3.12008 11.8913 3.26826 11.8913Z"
    fill="#4116F8"
  />
  <path
    d="M3.26826 13.8711C3.41637 13.8711 3.53651 13.751 3.53651 13.6028C3.53651 13.4547 3.41637 13.3346 3.26826 13.3346C3.12008 13.3346 3 13.4547 3 13.6028C3 13.751 3.12008 13.8711 3.26826 13.8711Z"
    fill="#4116F8"
  />
  <path
    d="M3.26826 15.8509C3.41637 15.8509 3.53651 15.7309 3.53651 15.5827C3.53651 15.4345 3.41637 15.3144 3.26826 15.3144C3.12008 15.3144 3 15.4345 3 15.5827C3 15.7309 3.12008 15.8509 3.26826 15.8509Z"
    fill="#4116F8"
  />
  <path
    d="M4.96686 16.8262C5.11504 16.8262 5.23512 16.7062 5.23512 16.558C5.23512 16.4099 5.11504 16.2897 4.96686 16.2897C4.81875 16.2897 4.69861 16.4099 4.69861 16.558C4.69861 16.7062 4.81875 16.8262 4.96686 16.8262Z"
    fill="#4116F8"
  />
  <path
    d="M3.26826 17.8308C3.41637 17.8308 3.53651 17.7107 3.53651 17.5625C3.53651 17.4144 3.41637 17.2943 3.26826 17.2943C3.12008 17.2943 3 17.4144 3 17.5625C3 17.7107 3.12008 17.8308 3.26826 17.8308Z"
    fill="#4116F8"
  />
  <path
    d="M11.7609 14.7879C11.909 14.7879 12.0292 14.6678 12.0292 14.5197C12.0292 14.3715 11.909 14.2514 11.7609 14.2514C11.6128 14.2514 11.4927 14.3715 11.4927 14.5197C11.4927 14.6678 11.6128 14.7879 11.7609 14.7879Z"
    fill="#4116F8"
  />
  <path
    d="M10.0624 15.7924C10.2106 15.7924 10.3307 15.6724 10.3307 15.5242C10.3307 15.3761 10.2106 15.2559 10.0624 15.2559C9.91433 15.2559 9.79419 15.3761 9.79419 15.5242C9.79419 15.6724 9.91433 15.7924 10.0624 15.7924Z"
    fill="#4116F8"
  />
  <path
    d="M8.36396 16.7969C8.51214 16.7969 8.63222 16.6769 8.63222 16.5287C8.63222 16.3806 8.51214 16.2604 8.36396 16.2604C8.21578 16.2604 8.0957 16.3806 8.0957 16.5287C8.0957 16.6769 8.21578 16.7969 8.36396 16.7969Z"
    fill="#4116F8"
  />
  <path
    d="M6.66535 17.8015C6.81353 17.8015 6.93361 17.6814 6.93361 17.5332C6.93361 17.3851 6.81353 17.265 6.66535 17.265C6.51724 17.265 6.39709 17.3851 6.39709 17.5332C6.39709 17.6814 6.51724 17.8015 6.66535 17.8015Z"
    fill="#4116F8"
  />
  <path
    d="M4.96686 18.806C5.11504 18.806 5.23512 18.6859 5.23512 18.5377C5.23512 18.3896 5.11504 18.2695 4.96686 18.2695C4.81875 18.2695 4.69861 18.3896 4.69861 18.5377C4.69861 18.6859 4.81875 18.806 4.96686 18.806Z"
    fill="#4116F8"
  />
  <path
    d="M11.7609 16.7678C11.909 16.7678 12.0292 16.6477 12.0292 16.4996C12.0292 16.3514 11.909 16.2313 11.7609 16.2313C11.6128 16.2313 11.4927 16.3514 11.4927 16.4996C11.4927 16.6477 11.6128 16.7678 11.7609 16.7678Z"
    fill="#4116F8"
  />
  <path
    d="M10.0624 17.7724C10.2106 17.7724 10.3307 17.6523 10.3307 17.5041C10.3307 17.3559 10.2106 17.2358 10.0624 17.2358C9.91433 17.2358 9.79419 17.3559 9.79419 17.5041C9.79419 17.6523 9.91433 17.7724 10.0624 17.7724Z"
    fill="#4116F8"
  />
  <path
    d="M8.36396 18.7768C8.51214 18.7768 8.63222 18.6568 8.63222 18.5086C8.63222 18.3604 8.51214 18.2403 8.36396 18.2403C8.21578 18.2403 8.0957 18.3604 8.0957 18.5086C8.0957 18.6568 8.21578 18.7768 8.36396 18.7768Z"
    fill="#4116F8"
  />
  <path
    d="M6.66535 19.7814C6.81353 19.7814 6.93361 19.6613 6.93361 19.5131C6.93361 19.365 6.81353 19.2449 6.66535 19.2449C6.51724 19.2449 6.39709 19.365 6.39709 19.5131C6.39709 19.6613 6.51724 19.7814 6.66535 19.7814Z"
    fill="#4116F8"
  />
  <path
    d="M11.7609 18.7476C11.909 18.7476 12.0292 18.6275 12.0292 18.4793C12.0292 18.3312 11.909 18.2111 11.7609 18.2111C11.6128 18.2111 11.4927 18.3312 11.4927 18.4793C11.4927 18.6275 11.6128 18.7476 11.7609 18.7476Z"
    fill="#4116F8"
  />
  <path
    d="M10.0624 19.7521C10.2106 19.7521 10.3307 19.632 10.3307 19.4838C10.3307 19.3357 10.2106 19.2155 10.0624 19.2155C9.91433 19.2155 9.79419 19.3357 9.79419 19.4838C9.79419 19.632 9.91433 19.7521 10.0624 19.7521Z"
    fill="#4116F8"
  />
  <path
    d="M8.36396 20.7566C8.51214 20.7566 8.63222 20.6365 8.63222 20.4884C8.63222 20.3402 8.51214 20.2201 8.36396 20.2201C8.21578 20.2201 8.0957 20.3402 8.0957 20.4884C8.0957 20.6365 8.21578 20.7566 8.36396 20.7566Z"
    fill="#4116F8"
  />
  <path
    d="M11.7609 20.7273C11.909 20.7273 12.0292 20.6073 12.0292 20.4591C12.0292 20.311 11.909 20.1908 11.7609 20.1908C11.6128 20.1908 11.4927 20.311 11.4927 20.4591C11.4927 20.6073 11.6128 20.7273 11.7609 20.7273Z"
    fill="#4116F8"
  />
  <path
    d="M10.0624 21.7319C10.2106 21.7319 10.3307 21.6118 10.3307 21.4636C10.3307 21.3155 10.2106 21.1953 10.0624 21.1953C9.91433 21.1953 9.79419 21.3155 9.79419 21.4636C9.79419 21.6118 9.91433 21.7319 10.0624 21.7319Z"
    fill="#4116F8"
  />
  <path
    d="M11.7609 22.7072C11.909 22.7072 12.0292 22.5872 12.0292 22.439C12.0292 22.2909 11.909 22.1707 11.7609 22.1707C11.6128 22.1707 11.4927 22.2909 11.4927 22.439C11.4927 22.5872 11.6128 22.7072 11.7609 22.7072Z"
    fill="#4116F8"
  />
  <path
    d="M20.2318 7.93162C20.3799 7.93162 20.5 7.81156 20.5 7.6634C20.5 7.5153 20.3799 7.39517 20.2318 7.39517C20.0836 7.39517 19.9635 7.5153 19.9635 7.6634C19.9635 7.81156 20.0836 7.93162 20.2318 7.93162Z"
    fill="#4116F8"
  />
  <path
    d="M16.8311 7.90617C16.9793 7.90617 17.0994 7.7861 17.0994 7.63792C17.0994 7.48974 16.9793 7.36966 16.8311 7.36966C16.683 7.36966 16.5629 7.48974 16.5629 7.63792C16.5629 7.7861 16.683 7.90617 16.8311 7.90617Z"
    fill="#4116F8"
  />
  <path
    d="M18.5333 8.90703C18.6815 8.90703 18.8015 8.78689 18.8015 8.63877C18.8015 8.49059 18.6815 8.37051 18.5333 8.37051C18.3852 8.37051 18.265 8.49059 18.265 8.63877C18.265 8.78689 18.3852 8.90703 18.5333 8.90703Z"
    fill="#4116F8"
  />
  <path
    d="M20.2318 9.91148C20.3799 9.91148 20.5 9.79135 20.5 9.64326C20.5 9.49509 20.3799 9.37503 20.2318 9.37503C20.0836 9.37503 19.9635 9.49509 19.9635 9.64326C19.9635 9.79135 20.0836 9.91148 20.2318 9.91148Z"
    fill="#4116F8"
  />
  <path
    d="M20.2318 11.8912C20.3799 11.8912 20.5 11.7712 20.5 11.623C20.5 11.4749 20.3799 11.3548 20.2318 11.3548C20.0836 11.3548 19.9635 11.4749 19.9635 11.623C19.9635 11.7712 20.0836 11.8912 20.2318 11.8912Z"
    fill="#4116F8"
  />
  <path
    d="M20.2318 13.871C20.3799 13.871 20.5 13.751 20.5 13.6028C20.5 13.4547 20.3799 13.3346 20.2318 13.3346C20.0836 13.3346 19.9635 13.4547 19.9635 13.6028C19.9635 13.751 20.0836 13.871 20.2318 13.871Z"
    fill="#4116F8"
  />
  <path
    d="M20.2318 15.8509C20.3799 15.8509 20.5 15.7308 20.5 15.5826C20.5 15.4345 20.3799 15.3144 20.2318 15.3144C20.0836 15.3144 19.9635 15.4345 19.9635 15.5826C19.9635 15.7308 20.0836 15.8509 20.2318 15.8509Z"
    fill="#4116F8"
  />
  <path
    d="M18.5333 16.8262C18.6815 16.8262 18.8015 16.7062 18.8015 16.558C18.8015 16.4099 18.6815 16.2897 18.5333 16.2897C18.3852 16.2897 18.265 16.4099 18.265 16.558C18.265 16.7062 18.3852 16.8262 18.5333 16.8262Z"
    fill="#4116F8"
  />
  <path
    d="M20.2318 17.8307C20.3799 17.8307 20.5 17.7106 20.5 17.5625C20.5 17.4144 20.3799 17.2943 20.2318 17.2943C20.0836 17.2943 19.9635 17.4144 19.9635 17.5625C19.9635 17.7106 20.0836 17.8307 20.2318 17.8307Z"
    fill="#4116F8"
  />
  <path
    d="M11.7354 14.7879C11.8835 14.7879 12.0037 14.6678 12.0037 14.5197C12.0037 14.3715 11.8835 14.2514 11.7354 14.2514C11.5872 14.2514 11.4672 14.3715 11.4672 14.5197C11.4672 14.6678 11.5872 14.7879 11.7354 14.7879Z"
    fill="#4116F8"
  />
  <path
    d="M13.434 15.7924C13.5822 15.7924 13.7023 15.6724 13.7023 15.5242C13.7023 15.3761 13.5822 15.2559 13.434 15.2559C13.2858 15.2559 13.1658 15.3761 13.1658 15.5242C13.1658 15.6724 13.2858 15.7924 13.434 15.7924Z"
    fill="#4116F8"
  />
  <path
    d="M15.1324 16.797C15.2806 16.797 15.4006 16.6769 15.4006 16.5287C15.4006 16.3806 15.2806 16.2604 15.1324 16.2604C14.9842 16.2604 14.8641 16.3806 14.8641 16.5287C14.8641 16.6769 14.9842 16.797 15.1324 16.797Z"
    fill="#4116F8"
  />
  <path
    d="M16.8311 17.8015C16.9793 17.8015 17.0994 17.6814 17.0994 17.5332C17.0994 17.3851 16.9793 17.265 16.8311 17.265C16.683 17.265 16.5629 17.3851 16.5629 17.5332C16.5629 17.6814 16.683 17.8015 16.8311 17.8015Z"
    fill="#4116F8"
  />
  <path
    d="M18.5333 18.806C18.6815 18.806 18.8015 18.6859 18.8015 18.5377C18.8015 18.3896 18.6815 18.2695 18.5333 18.2695C18.3852 18.2695 18.265 18.3896 18.265 18.5377C18.265 18.6859 18.3852 18.806 18.5333 18.806Z"
    fill="#4116F8"
  />
  <path
    d="M11.7354 16.7678C11.8835 16.7678 12.0037 16.6477 12.0037 16.4996C12.0037 16.3514 11.8835 16.2313 11.7354 16.2313C11.5872 16.2313 11.4672 16.3514 11.4672 16.4996C11.4672 16.6477 11.5872 16.7678 11.7354 16.7678Z"
    fill="#4116F8"
  />
  <path
    d="M13.434 17.7724C13.5822 17.7724 13.7023 17.6523 13.7023 17.5041C13.7023 17.3559 13.5822 17.2358 13.434 17.2358C13.2858 17.2358 13.1658 17.3559 13.1658 17.5041C13.1658 17.6523 13.2858 17.7724 13.434 17.7724Z"
    fill="#4116F8"
  />
  <path
    d="M15.1324 18.7768C15.2806 18.7768 15.4006 18.6568 15.4006 18.5086C15.4006 18.3604 15.2806 18.2403 15.1324 18.2403C14.9842 18.2403 14.8641 18.3604 14.8641 18.5086C14.8641 18.6568 14.9842 18.7768 15.1324 18.7768Z"
    fill="#4116F8"
  />
  <path
    d="M16.8311 19.7814C16.9793 19.7814 17.0994 19.6613 17.0994 19.5131C17.0994 19.365 16.9793 19.2449 16.8311 19.2449C16.683 19.2449 16.5629 19.365 16.5629 19.5131C16.5629 19.6613 16.683 19.7814 16.8311 19.7814Z"
    fill="#4116F8"
  />
  <path
    d="M11.7354 18.7476C11.8835 18.7476 12.0037 18.6275 12.0037 18.4793C12.0037 18.3312 11.8835 18.2111 11.7354 18.2111C11.5872 18.2111 11.4672 18.3312 11.4672 18.4793C11.4672 18.6275 11.5872 18.7476 11.7354 18.7476Z"
    fill="#4116F8"
  />
  <path
    d="M13.434 19.7521C13.5822 19.7521 13.7023 19.632 13.7023 19.4838C13.7023 19.3357 13.5822 19.2155 13.434 19.2155C13.2858 19.2155 13.1658 19.3357 13.1658 19.4838C13.1658 19.632 13.2858 19.7521 13.434 19.7521Z"
    fill="#4116F8"
  />
  <path
    d="M15.1324 20.7566C15.2806 20.7566 15.4006 20.6365 15.4006 20.4884C15.4006 20.3402 15.2806 20.2201 15.1324 20.2201C14.9842 20.2201 14.8641 20.3402 14.8641 20.4884C14.8641 20.6365 14.9842 20.7566 15.1324 20.7566Z"
    fill="#4116F8"
  />
  <path
    d="M11.7354 20.7273C11.8835 20.7273 12.0037 20.6073 12.0037 20.4591C12.0037 20.311 11.8835 20.1908 11.7354 20.1908C11.5872 20.1908 11.4672 20.311 11.4672 20.4591C11.4672 20.6073 11.5872 20.7273 11.7354 20.7273Z"
    fill="#4116F8"
  />
  <path
    d="M13.434 21.7319C13.5822 21.7319 13.7023 21.6118 13.7023 21.4636C13.7023 21.3155 13.5822 21.1953 13.434 21.1953C13.2858 21.1953 13.1658 21.3155 13.1658 21.4636C13.1658 21.6118 13.2858 21.7319 13.434 21.7319Z"
    fill="#4116F8"
  />
  <path
    d="M11.7354 22.7072C11.8835 22.7072 12.0037 22.5871 12.0037 22.439C12.0037 22.2909 11.8835 22.1707 11.7354 22.1707C11.5872 22.1707 11.4672 22.2909 11.4672 22.439C11.4672 22.5871 11.5872 22.7072 11.7354 22.7072Z"
    fill="#4116F8"
  />
  <path
    d="M11.5601 2.53651C11.7082 2.53651 11.8284 2.41644 11.8284 2.26826C11.8284 2.12014 11.7082 2 11.5601 2C11.4119 2 11.2919 2.12014 11.2919 2.26826C11.2919 2.41644 11.4119 2.53651 11.5601 2.53651Z"
    fill="#4116F8"
  />
  <path
    d="M9.86158 3.541C10.0097 3.541 10.1298 3.42092 10.1298 3.27274C10.1298 3.12463 10.0097 3.00449 9.86158 3.00449C9.7134 3.00449 9.59326 3.12463 9.59326 3.27274C9.59326 3.42092 9.7134 3.541 9.86158 3.541Z"
    fill="#4116F8"
  />
  <path
    d="M8.16291 4.54555C8.31109 4.54555 8.43117 4.42547 8.43117 4.27729C8.43117 4.12917 8.31109 4.00903 8.16291 4.00903C8.0148 4.00903 7.89465 4.12917 7.89465 4.27729C7.89465 4.42547 8.0148 4.54555 8.16291 4.54555Z"
    fill="#4116F8"
  />
  <path
    d="M6.46442 5.55006C6.61254 5.55006 6.73268 5.42998 6.73268 5.28181C6.73268 5.13369 6.61254 5.01355 6.46442 5.01355C6.31624 5.01355 6.19617 5.13369 6.19617 5.28181C6.19617 5.42998 6.31624 5.55006 6.46442 5.55006Z"
    fill="#4116F8"
  />
  <path
    d="M4.76594 6.55458C4.91405 6.55458 5.03419 6.4345 5.03419 6.28632C5.03419 6.13821 4.91405 6.01807 4.76594 6.01807C4.61776 6.01807 4.49768 6.13821 4.49768 6.28632C4.49768 6.4345 4.61776 6.55458 4.76594 6.55458Z"
    fill="#4116F8"
  />
  <path
    d="M11.5601 4.5164C11.7082 4.5164 11.8284 4.39626 11.8284 4.24814C11.8284 4.09996 11.7082 3.97989 11.5601 3.97989C11.4119 3.97989 11.2919 4.09996 11.2919 4.24814C11.2919 4.39626 11.4119 4.5164 11.5601 4.5164Z"
    fill="#4116F8"
  />
  <path
    d="M9.86158 5.52089C10.0097 5.52089 10.1298 5.40075 10.1298 5.25263C10.1298 5.10445 10.0097 4.98438 9.86158 4.98438C9.7134 4.98438 9.59326 5.10445 9.59326 5.25263C9.59326 5.40075 9.7134 5.52089 9.86158 5.52089Z"
    fill="#4116F8"
  />
  <path
    d="M8.16291 6.5254C8.31109 6.5254 8.43117 6.40526 8.43117 6.25715C8.43117 6.10897 8.31109 5.98889 8.16291 5.98889C8.0148 5.98889 7.89465 6.10897 7.89465 6.25715C7.89465 6.40526 8.0148 6.5254 8.16291 6.5254Z"
    fill="#4116F8"
  />
  <path
    d="M11.5345 2.53651C11.6827 2.53651 11.8027 2.41644 11.8027 2.26826C11.8027 2.12014 11.6827 2 11.5345 2C11.3864 2 11.2662 2.12014 11.2662 2.26826C11.2662 2.41644 11.3864 2.53651 11.5345 2.53651Z"
    fill="#4116F8"
  />
  <path
    d="M13.2331 3.541C13.3813 3.541 13.5014 3.42092 13.5014 3.27274C13.5014 3.12462 13.3813 3.00449 13.2331 3.00449C13.085 3.00449 12.9648 3.12462 12.9648 3.27274C12.9648 3.42092 13.085 3.541 13.2331 3.541Z"
    fill="#4116F8"
  />
  <path
    d="M14.9317 4.54554C15.0798 4.54554 15.2 4.42547 15.2 4.27729C15.2 4.12917 15.0798 4.00903 14.9317 4.00903C14.7835 4.00903 14.6635 4.12917 14.6635 4.27729C14.6635 4.42547 14.7835 4.54554 14.9317 4.54554Z"
    fill="#4116F8"
  />
  <path
    d="M16.6301 5.55007C16.7783 5.55007 16.8983 5.42999 16.8983 5.28181C16.8983 5.13369 16.7783 5.01355 16.6301 5.01355C16.4819 5.01355 16.3618 5.13369 16.3618 5.28181C16.3618 5.42999 16.4819 5.55007 16.6301 5.55007Z"
    fill="#4116F8"
  />
  <path
    d="M18.3323 6.55458C18.4805 6.55458 18.6006 6.4345 18.6006 6.28632C18.6006 6.13821 18.4805 6.01807 18.3323 6.01807C18.1842 6.01807 18.0641 6.13821 18.0641 6.28632C18.0641 6.4345 18.1842 6.55458 18.3323 6.55458Z"
    fill="#4116F8"
  />
  <path
    d="M11.5345 4.5164C11.6827 4.5164 11.8027 4.39626 11.8027 4.24814C11.8027 4.09996 11.6827 3.97989 11.5345 3.97989C11.3864 3.97989 11.2662 4.09996 11.2662 4.24814C11.2662 4.39626 11.3864 4.5164 11.5345 4.5164Z"
    fill="#4116F8"
  />
  <path
    d="M13.2331 5.52089C13.3813 5.52089 13.5014 5.40074 13.5014 5.25263C13.5014 5.10445 13.3813 4.98438 13.2331 4.98438C13.085 4.98438 12.9648 5.10445 12.9648 5.25263C12.9648 5.40074 13.085 5.52089 13.2331 5.52089Z"
    fill="#4116F8"
  />
  <path
    d="M14.9317 6.5254C15.0798 6.5254 15.2 6.40526 15.2 6.25715C15.2 6.10897 15.0798 5.98889 14.9317 5.98889C14.7835 5.98889 14.6635 6.10897 14.6635 6.25715C14.6635 6.40526 14.7835 6.5254 14.9317 6.5254Z"
    fill="#4116F8"
  />
  <path
    d="M10.0557 10.3253C10.4664 10.3253 10.7993 9.99235 10.7993 9.58166C10.7993 9.17098 10.4664 8.83807 10.0557 8.83807C9.64504 8.83807 9.31213 9.17098 9.31213 9.58166C9.31213 9.99235 9.64504 10.3253 10.0557 10.3253Z"
    fill="#4116F8"
  />
  <path
    d="M8.35711 11.3298C8.7678 11.3298 9.1007 10.9969 9.1007 10.5862C9.1007 10.1755 8.7678 9.84259 8.35711 9.84259C7.94647 9.84259 7.61353 10.1755 7.61353 10.5862C7.61353 10.9969 7.94647 11.3298 8.35711 11.3298Z"
    fill="#4116F8"
  />
  <path
    d="M6.65851 12.3306C7.06915 12.3306 7.40209 11.9977 7.40209 11.587C7.40209 11.1763 7.06915 10.8434 6.65851 10.8434C6.24782 10.8434 5.91492 11.1763 5.91492 11.587C5.91492 11.9977 6.24782 12.3306 6.65851 12.3306Z"
    fill="#4116F8"
  />
  <path
    d="M10.0557 12.305C10.4664 12.305 10.7993 11.9721 10.7993 11.5615C10.7993 11.1508 10.4664 10.8179 10.0557 10.8179C9.64504 10.8179 9.31213 11.1508 9.31213 11.5615C9.31213 11.9721 9.64504 12.305 10.0557 12.305Z"
    fill="#4116F8"
  />
  <path
    d="M8.35711 13.3059C8.7678 13.3059 9.1007 12.973 9.1007 12.5623C9.1007 12.1517 8.7678 11.8187 8.35711 11.8187C7.94647 11.8187 7.61353 12.1517 7.61353 12.5623C7.61353 12.973 7.94647 13.3059 8.35711 13.3059Z"
    fill="#4116F8"
  />
  <path
    d="M6.65851 14.3104C7.06915 14.3104 7.40209 13.9775 7.40209 13.5668C7.40209 13.1562 7.06915 12.8232 6.65851 12.8232C6.24782 12.8232 5.91492 13.1562 5.91492 13.5668C5.91492 13.9775 6.24782 14.3104 6.65851 14.3104Z"
    fill="#4116F8"
  />
  <path
    d="M11.7286 9.3207C12.1393 9.3207 12.4722 8.9878 12.4722 8.57712C12.4722 8.16643 12.1393 7.83353 11.7286 7.83353C11.3179 7.83353 10.985 8.16643 10.985 8.57712C10.985 8.9878 11.3179 9.3207 11.7286 9.3207Z"
    fill="#4116F8"
  />
  <path
    d="M13.4272 10.3252C13.8379 10.3252 14.1708 9.99235 14.1708 9.58166C14.1708 9.17098 13.8379 8.83807 13.4272 8.83807C13.0165 8.83807 12.6836 9.17098 12.6836 9.58166C12.6836 9.99235 13.0165 10.3252 13.4272 10.3252Z"
    fill="#4116F8"
  />
  <path
    d="M15.1258 11.3298C15.5365 11.3298 15.8694 10.9969 15.8694 10.5862C15.8694 10.1755 15.5365 9.84259 15.1258 9.84259C14.7151 9.84259 14.3822 10.1755 14.3822 10.5862C14.3822 10.9969 14.7151 11.3298 15.1258 11.3298Z"
    fill="#4116F8"
  />
  <path
    d="M16.8241 12.3307C17.2348 12.3307 17.5677 11.9977 17.5677 11.5871C17.5677 11.1764 17.2348 10.8434 16.8241 10.8434C16.4135 10.8434 16.0806 11.1764 16.0806 11.5871C16.0806 11.9977 16.4135 12.3307 16.8241 12.3307Z"
    fill="#4116F8"
  />
  <path
    d="M11.7286 11.3005C12.1393 11.3005 12.4722 10.9676 12.4722 10.5569C12.4722 10.1463 12.1393 9.81335 11.7286 9.81335C11.3179 9.81335 10.985 10.1463 10.985 10.5569C10.985 10.9676 11.3179 11.3005 11.7286 11.3005Z"
    fill="#4116F8"
  />
  <path
    d="M13.4272 12.305C13.8379 12.305 14.1708 11.9721 14.1708 11.5615C14.1708 11.1508 13.8379 10.8179 13.4272 10.8179C13.0165 10.8179 12.6836 11.1508 12.6836 11.5615C12.6836 11.9721 13.0165 12.305 13.4272 12.305Z"
    fill="#4116F8"
  />
  <path
    d="M15.1258 13.3059C15.5365 13.3059 15.8694 12.973 15.8694 12.5623C15.8694 12.1517 15.5365 11.8187 15.1258 11.8187C14.7151 11.8187 14.3822 12.1517 14.3822 12.5623C14.3822 12.973 14.7151 13.3059 15.1258 13.3059Z"
    fill="#4116F8"
  />
  <path
    d="M16.8241 14.3105C17.2348 14.3105 17.5677 13.9775 17.5677 13.5669C17.5677 13.1562 17.2348 12.8232 16.8241 12.8232C16.4135 12.8232 16.0806 13.1562 16.0806 13.5669C16.0806 13.9775 16.4135 14.3105 16.8241 14.3105Z"
    fill="#4116F8"
  />
  <path
    d="M10.0627 8.04204C10.3019 8.04204 10.4957 7.84814 10.4957 7.60906C10.4957 7.36993 10.3019 7.17609 10.0627 7.17609C9.82365 7.17609 9.62976 7.36993 9.62976 7.60906C9.62976 7.84814 9.82365 8.04204 10.0627 8.04204Z"
    fill="#4116F8"
  />
  <path
    d="M8.36425 9.04652C8.60338 9.04652 8.79723 8.85263 8.79723 8.61355C8.79723 8.37442 8.60338 8.18057 8.36425 8.18057C8.12512 8.18057 7.93127 8.37442 7.93127 8.61355C7.93127 8.85263 8.12512 9.04652 8.36425 9.04652Z"
    fill="#4116F8"
  />
  <path
    d="M6.66576 10.051C6.9049 10.051 7.09874 9.85715 7.09874 9.61806C7.09874 9.37893 6.9049 9.18509 6.66576 9.18509C6.42663 9.18509 6.23279 9.37893 6.23279 9.61806C6.23279 9.85715 6.42663 10.051 6.66576 10.051Z"
    fill="#4116F8"
  />
  <path
    d="M4.96728 11.0519C5.20641 11.0519 5.40025 10.858 5.40025 10.619C5.40025 10.3798 5.20641 10.186 4.96728 10.186C4.72815 10.186 4.5343 10.3798 4.5343 10.619C4.5343 10.858 4.72815 11.0519 4.96728 11.0519Z"
    fill="#4116F8"
  />
  <path
    d="M4.96728 15.0114C5.20641 15.0114 5.40025 14.8176 5.40025 14.5785C5.40025 14.3393 5.20641 14.1455 4.96728 14.1455C4.72815 14.1455 4.5343 14.3393 4.5343 14.5785C4.5343 14.8176 4.72815 15.0114 4.96728 15.0114Z"
    fill="#4116F8"
  />
  <path
    d="M10.0627 13.9778C10.3019 13.9778 10.4957 13.7839 10.4957 13.5448C10.4957 13.3057 10.3019 13.1118 10.0627 13.1118C9.82365 13.1118 9.62976 13.3057 9.62976 13.5448C9.62976 13.7839 9.82365 13.9778 10.0627 13.9778Z"
    fill="#4116F8"
  />
  <path
    d="M8.36425 14.9823C8.60338 14.9823 8.79723 14.7884 8.79723 14.5493C8.79723 14.3102 8.60338 14.1163 8.36425 14.1163C8.12512 14.1163 7.93127 14.3102 7.93127 14.5493C7.93127 14.7884 8.12512 14.9823 8.36425 14.9823Z"
    fill="#4116F8"
  />
  <path
    d="M6.66576 15.9868C6.9049 15.9868 7.09874 15.7929 7.09874 15.5538C7.09874 15.3147 6.9049 15.1208 6.66576 15.1208C6.42663 15.1208 6.23279 15.3147 6.23279 15.5538C6.23279 15.7929 6.42663 15.9868 6.66576 15.9868Z"
    fill="#4116F8"
  />
  <path
    d="M11.7357 7.03749C11.9748 7.03749 12.1687 6.8436 12.1687 6.60451C12.1687 6.36538 11.9748 6.17154 11.7357 6.17154C11.4966 6.17154 11.3027 6.36538 11.3027 6.60451C11.3027 6.8436 11.4966 7.03749 11.7357 7.03749Z"
    fill="#4116F8"
  />
  <path
    d="M13.4344 8.04203C13.6734 8.04203 13.8673 7.84814 13.8673 7.60906C13.8673 7.36993 13.6734 7.17609 13.4344 7.17609C13.1952 7.17609 13.0013 7.36993 13.0013 7.60906C13.0013 7.84814 13.1952 8.04203 13.4344 8.04203Z"
    fill="#4116F8"
  />
  <path
    d="M15.1329 9.04652C15.3721 9.04652 15.5659 8.85263 15.5659 8.61355C15.5659 8.37442 15.3721 8.18057 15.1329 8.18057C14.8938 8.18057 14.7 8.37442 14.7 8.61355C14.7 8.85263 14.8938 9.04652 15.1329 9.04652Z"
    fill="#4116F8"
  />
  <path
    d="M16.8314 10.051C17.0705 10.051 17.2644 9.85715 17.2644 9.61806C17.2644 9.37893 17.0705 9.18509 16.8314 9.18509C16.5923 9.18509 16.3984 9.37893 16.3984 9.61806C16.3984 9.85715 16.5923 10.051 16.8314 10.051Z"
    fill="#4116F8"
  />
  <path
    d="M18.5337 11.0519C18.7728 11.0519 18.9667 10.858 18.9667 10.619C18.9667 10.3798 18.7728 10.186 18.5337 10.186C18.2945 10.186 18.1007 10.3798 18.1007 10.619C18.1007 10.858 18.2945 11.0519 18.5337 11.0519Z"
    fill="#4116F8"
  />
  <path
    d="M18.5337 13.0317C18.7728 13.0317 18.9667 12.8379 18.9667 12.5987C18.9667 12.3596 18.7728 12.1657 18.5337 12.1657C18.2945 12.1657 18.1007 12.3596 18.1007 12.5987C18.1007 12.8379 18.2945 13.0317 18.5337 13.0317Z"
    fill="#4116F8"
  />
  <path
    d="M18.5337 15.0114C18.7728 15.0114 18.9667 14.8176 18.9667 14.5785C18.9667 14.3393 18.7728 14.1455 18.5337 14.1455C18.2945 14.1455 18.1007 14.3393 18.1007 14.5785C18.1007 14.8176 18.2945 15.0114 18.5337 15.0114Z"
    fill="#4116F8"
  />
  <path
    d="M11.7357 12.9769C11.9748 12.9769 12.1687 12.783 12.1687 12.5439C12.1687 12.3048 11.9748 12.1109 11.7357 12.1109C11.4966 12.1109 11.3027 12.3048 11.3027 12.5439C11.3027 12.783 11.4966 12.9769 11.7357 12.9769Z"
    fill="#4116F8"
  />
  <path
    d="M13.4344 13.9778C13.6734 13.9778 13.8673 13.7839 13.8673 13.5448C13.8673 13.3057 13.6734 13.1118 13.4344 13.1118C13.1952 13.1118 13.0013 13.3057 13.0013 13.5448C13.0013 13.7839 13.1952 13.9778 13.4344 13.9778Z"
    fill="#4116F8"
  />
  <path
    d="M15.1329 14.9823C15.3721 14.9823 15.5659 14.7884 15.5659 14.5493C15.5659 14.3102 15.3721 14.1163 15.1329 14.1163C14.8938 14.1163 14.7 14.3102 14.7 14.5493C14.7 14.7884 14.8938 14.9823 15.1329 14.9823Z"
    fill="#4116F8"
  />
  <path
    d="M16.8314 15.9868C17.0705 15.9868 17.2644 15.7929 17.2644 15.5538C17.2644 15.3147 17.0705 15.1208 16.8314 15.1208C16.5923 15.1208 16.3984 15.3147 16.3984 15.5538C16.3984 15.7929 16.5923 15.9868 16.8314 15.9868Z"
    fill="#4116F8"
  />
  <path
    d="M4.96728 13.0317C5.20641 13.0317 5.40025 12.8378 5.40025 12.5987C5.40025 12.3596 5.20641 12.1657 4.96728 12.1657C4.72815 12.1657 4.5343 12.3596 4.5343 12.5987C4.5343 12.8378 4.72815 13.0317 4.96728 13.0317Z"
    fill="#4116F8"
  />
</svg>
